#N canvas 126 193 831 595 10;
#X msg 335 -224 \$1;
#X floatatom 385 -227 5 0 0 0 - - -;
#X obj 283 -176 !=;
#X obj 396 -183 ==;
#N canvas 0 22 450 300 channels 0;
#X obj 34 88 channel 1;
#X obj 120 89 channel 2;
#X obj 34 135 outlet;
#X obj 121 138 outlet;
#X obj 536 145 outlet;
#X obj 623 148 outlet;
#X obj 697 140 outlet;
#X obj 784 143 outlet;
#X obj 198 139 outlet;
#X obj 458 146 outlet;
#X obj 198 92 channel 3;
#X obj 457 97 channel 4;
#X obj 536 98 channel 5;
#X obj 622 99 channel 6;
#X obj 697 93 channel 7;
#X obj 784 94 channel 8;
#X connect 0 0 2 0;
#X connect 1 0 3 0;
#X connect 10 0 8 0;
#X connect 11 0 9 0;
#X connect 12 0 4 0;
#X connect 13 0 5 0;
#X connect 14 0 6 0;
#X connect 15 0 7 0;
#X restore 440 -135 pd channels;
#X text 474 -270 attempt was to if \$1!=0 have a layer/out \, else
channel/out;
#X obj 13 11 channel 1;
#X obj 99 12 channel 2;
#X obj 13 58 outlet;
#X obj 100 61 outlet;
#X obj 515 68 outlet;
#X obj 602 71 outlet;
#X obj 676 63 outlet;
#X obj 763 66 outlet;
#X obj 177 62 outlet;
#X obj 437 69 outlet;
#X obj 177 15 channel 3;
#X obj 436 20 channel 4;
#X obj 515 21 channel 5;
#X obj 601 22 channel 6;
#X obj 676 16 channel 7;
#X obj 763 17 channel 8;
#X connect 0 0 2 0;
#X connect 0 0 3 0;
#X connect 1 0 2 1;
#X connect 1 0 3 1;
#X connect 6 0 8 0;
#X connect 7 0 9 0;
#X connect 16 0 14 0;
#X connect 17 0 15 0;
#X connect 18 0 10 0;
#X connect 19 0 11 0;
#X connect 20 0 12 0;
#X connect 21 0 13 0;
