#N canvas 677 305 715 469 10;
#X text 491 6;
#X obj 16 22 ctlin \$1 1;
#X obj 225 177 outlet;
#X obj 87 22 ctlin \$1 2;
#X obj 156 23 ctlin \$1 3;
#X obj 224 23 ctlin \$1 4;
#X obj 291 23 ctlin \$1 5;
#X obj 359 23 ctlin \$1 6;
#X obj 430 23 ctlin \$1 7;
#X obj 499 23 ctlin \$1 8;
#X obj 164 117 pack f f f f f f f f f;
#X obj 56 85 ctlin;
#X obj 122 102 bng 15 250 50 0 empty empty empty 17 7 0 10 -262144
-1 -1;
#X connect 1 0 10 1;
#X connect 3 0 10 2;
#X connect 4 0 10 3;
#X connect 5 0 10 4;
#X connect 6 0 10 5;
#X connect 7 0 10 6;
#X connect 8 0 10 7;
#X connect 9 0 10 8;
#X connect 10 0 2 0;
#X connect 11 0 12 0;
#X connect 12 0 10 0;
