#N canvas 169 52 450 300 10;
#X obj 82 84 tgl 15 0 empty empty empty 17 7 0 10 -262144 -1 -1 0 127
;
#X obj 82 125 outlet;
#X obj 82 38 ctlin \$1 \$2;
#X obj 203 77 tgl 15 0 empty empty empty 17 7 0 10 -262144 -1 -1 0
127;
#X obj 204 112 ctlout \$1 \$2;
#X obj 201 40 inlet;
#X msg 238 68 \$1;
#X msg 273 74 \$2;
#X connect 0 0 1 0;
#X connect 2 0 0 0;
#X connect 3 0 4 0;
#X connect 5 0 3 0;
#X connect 6 0 4 1;
#X connect 7 0 4 2;
