#N canvas 126 193 831 580 10;
#X obj 34 88 channel 1;
#X obj 120 89 channel 2;
#X obj 34 135 outlet;
#X obj 121 138 outlet;
#X obj 536 98 channel 1;
#X obj 622 99 channel 2;
#X obj 536 145 outlet;
#X obj 623 148 outlet;
#X obj 697 93 channel 1;
#X obj 783 94 channel 2;
#X obj 697 140 outlet;
#X obj 784 143 outlet;
#X obj 198 92 channel 1;
#X obj 284 93 channel 2;
#X obj 198 139 outlet;
#X obj 285 142 outlet;
#X text 40 48 comment;
#X connect 0 0 2 0;
#X connect 1 0 3 0;
#X connect 4 0 6 0;
#X connect 5 0 7 0;
#X connect 8 0 10 0;
#X connect 9 0 11 0;
#X connect 12 0 14 0;
#X connect 13 0 15 0;
