#N canvas 113 328 450 300 10;
#X obj 164 114 outlet;
#X obj 396 113 outlet;
#X obj 18 116 outlet;
#X obj 268 114 outlet;
#X obj 164 54 click 1 8;
#X obj 268 54 click 4 8;
#X obj 18 56 click 3 8;
#X obj 396 53 click 2 8;
#X text 17 34 pause;
#X text 156 31 play;
#X text 393 27 back;
#X text 266 27 reset;
#X connect 4 0 0 0;
#X connect 5 0 3 0;
#X connect 6 0 2 0;
#X connect 7 0 1 0;
