#N canvas 180 283 590 342 10;
#X obj 55 40 ctlin 1 1;
#X obj 278 208 outlet;
#X obj 120 40 ctlin 1 2;
#X obj 183 40 ctlin 1 3;
#X obj 247 40 ctlin 1 4;
#X obj 308 40 ctlin 1 5;
#X obj 370 40 ctlin 1 6;
#X obj 432 40 ctlin 1 7;
#X obj 495 40 ctlin 1 8;
#X connect 0 0 1 0;
#X connect 2 0 1 0;
#X connect 3 0 1 0;
#X connect 4 0 1 0;
#X connect 5 0 1 0;
#X connect 6 0 1 0;
#X connect 7 0 1 0;
#X connect 8 0 1 0;
