#N canvas 493 410 702 322 10;
#X obj 50 73 outlet;
#X obj 125 72 outlet;
#X obj 194 72 outlet;
#X obj 269 71 outlet;
#X obj 337 71 outlet;
#X obj 412 70 outlet;
#X obj 481 70 outlet;
#X obj 556 69 outlet;
#X obj 50 51 fader 1 \$1;
#X obj 125 50 fader 2 \$1;
#X obj 194 50 fader 3 \$1;
#X obj 269 49 fader 4 \$1;
#X obj 337 49 fader 5 \$1;
#X obj 412 48 fader 6 \$1;
#X obj 481 49 fader 7 \$1;
#X obj 556 47 fader 8 \$1;
#X connect 8 0 0 0;
#X connect 9 0 1 0;
#X connect 10 0 2 0;
#X connect 11 0 3 0;
#X connect 12 0 4 0;
#X connect 13 0 5 0;
#X connect 14 0 6 0;
#X connect 15 0 7 0;
