#N canvas 96 437 559 444 10;
#X obj 209 228 pack f f f f;
#X obj 224 309 outlet;
#X obj 77 187 bng 15 250 50 0 empty empty empty 17 7 0 10 -262144 -1
-1;
#X text 274 114 A layer consists of one fader \, and two buttons;
#X obj 76 149 inlet;
#X obj 77 211 f \$1;
#X obj 251 151 click \$1 1;
#X obj 328 151 click \$1 2;
#X obj 164 150 fader \$1 3;
#X connect 0 0 1 0;
#X connect 2 0 5 0;
#X connect 4 0 2 0;
#X connect 5 0 0 0;
#X connect 6 0 2 0;
#X connect 6 0 0 2;
#X connect 7 0 2 0;
#X connect 7 0 0 3;
#X connect 8 0 2 0;
#X connect 8 0 0 1;
