#N canvas 52 487 700 315 10;
#X obj 208 156 outlet;
#X obj 208 109 layer 1;
#X obj 257 155 outlet;
#X obj 308 154 outlet;
#X obj 361 152 outlet;
#X obj 412 153 outlet;
#X obj 468 153 outlet;
#X obj 519 152 outlet;
#X obj 584 147 outlet;
#X obj 368 22 inlet;
#X obj 257 109 layer 2;
#X obj 308 108 layer 3;
#X obj 361 107 layer 4;
#X obj 412 110 layer 5;
#X obj 468 110 layer 6;
#X obj 519 109 layer 7;
#X obj 584 107 layer 8;
#X connect 1 0 0 0;
#X connect 9 0 1 0;
#X connect 9 0 10 0;
#X connect 9 0 11 0;
#X connect 9 0 12 0;
#X connect 9 0 13 0;
#X connect 9 0 14 0;
#X connect 9 0 15 0;
#X connect 9 0 16 0;
#X connect 10 0 2 0;
#X connect 11 0 3 0;
#X connect 12 0 4 0;
#X connect 13 0 5 0;
#X connect 14 0 6 0;
#X connect 15 0 7 0;
#X connect 16 0 8 0;
#X coords 0 0 1.5 1 0 0 0;
