#N canvas 159 228 559 444 10;
#X obj 209 228 pack f f f f;
#X obj 224 309 outlet;
#X obj 77 187 bng 15 250 50 0 empty empty empty 17 7 0 10 -262144 -1
-1;
#X text 269 272 A layer consists of one fader \, and two buttons;
#X obj 77 211 f \$1;
#X obj 251 151 click \$1 1;
#X obj 328 151 click \$1 2;
#X text 157 120 opacity;
#X text 271 122 lock;
#X text 343 126 mute;
#X obj 164 150 fader \$1 3;
#X obj 271 40 inlet;
#X obj 271 73 route float float float;
#X connect 0 0 1 0;
#X connect 2 0 4 0;
#X connect 4 0 0 0;
#X connect 5 0 2 0;
#X connect 5 0 0 2;
#X connect 6 0 2 0;
#X connect 6 0 0 3;
#X connect 10 0 2 0;
#X connect 10 0 0 1;
#X connect 11 0 12 0;
#X connect 12 1 10 0;
#X connect 12 2 5 0;
#X connect 12 3 6 0;
