#N canvas 129 48 641 553 10;
#X obj 90 39 ctlin;
#X floatatom 116 115 5 0 0 0 - - -;
#X floatatom 139 87 5 0 0 0 - - -;
#X floatatom 56 114 5 0 0 0 - - -;
#X obj 104 224 pgmin;
#X floatatom 78 281 5 0 0 0 - - -;
#X floatatom 162 303 5 0 0 0 - - -;
#X obj 81 397 notein;
#X floatatom 58 463 5 0 0 0 - - -;
#X floatatom 99 463 5 0 0 0 - - -;
#X floatatom 155 439 5 0 0 0 - - -;
#X obj 181 325 midiin;
#X obj 265 236 ctlout;
#X obj 266 105 bng 15 250 50 0 empty empty empty 17 7 0 10 -262144
-1 -1;
#X obj 286 56 console;
#X obj 286 380 controls;
#X obj 286 443 bng 15 250 50 0 empty empty empty 17 7 0 10 -262144
-1 -1;
#X obj 314 442 bng 15 250 50 0 empty empty empty 17 7 0 10 -262144
-1 -1;
#X obj 350 440 bng 15 250 50 0 empty empty empty 17 7 0 10 -262144
-1 -1;
#X obj 379 441 bng 15 250 50 0 empty empty empty 17 7 0 10 -262144
-1 -1;
#X obj 181 347 print;
#X obj 265 210 unpack 0 0 0;
#X floatatom 265 162 5 0 0 0 - - -;
#X msg 265 183 \$1 8 1;
#X text 262 136 My first fader is CC 8 channel 1;
#X text 320 162 Variale value;
#X text 322 182 Value \, CC \, Ch;
#X text 349 211 make sure the messages are passed right to left;
#X text 329 240 Send to device;
#X floatatom 433 156 5 0 0 0 - - -;
#X msg 433 177 \$1 23 1;
#X obj 324 315 layers;
#X obj 322 288 bng 15 250 50 0 empty empty empty 17 7 0 10 -262144
-1 -1;
#X connect 0 0 3 0;
#X connect 0 1 1 0;
#X connect 0 2 2 0;
#X connect 4 0 5 0;
#X connect 4 1 6 0;
#X connect 7 0 8 0;
#X connect 7 1 9 0;
#X connect 7 2 10 0;
#X connect 11 0 20 0;
#X connect 15 0 16 0;
#X connect 15 1 17 0;
#X connect 15 2 18 0;
#X connect 15 3 19 0;
#X connect 21 0 12 0;
#X connect 21 1 12 1;
#X connect 21 2 12 2;
#X connect 22 0 23 0;
#X connect 23 0 21 0;
#X connect 29 0 30 0;
#X connect 30 0 21 0;
#X connect 32 0 31 0;
