#N canvas 628 74 457 558 10;
#X obj 103 55 ctlin;
#X floatatom 150 116 5 0 0 0 - - -;
#X floatatom 173 88 5 0 0 0 - - -;
#X floatatom 90 115 5 0 0 0 - - -;
#X obj 104 224 pgmin;
#X floatatom 78 281 5 0 0 0 - - -;
#X floatatom 157 291 5 0 0 0 - - -;
#X obj 81 397 notein;
#X floatatom 58 463 5 0 0 0 - - -;
#X floatatom 99 463 5 0 0 0 - - -;
#X floatatom 155 439 5 0 0 0 - - -;
#N canvas 0 22 450 300 (subpatch) 0;
#X coords 0 1 100 -1 200 140 1;
#X restore 100 20 graph;
#X obj 308 228 ctlin 1 1;
#X floatatom 309 277 5 0 0 0 - - -;
#X connect 0 0 3 0;
#X connect 0 1 1 0;
#X connect 0 2 2 0;
#X connect 4 0 5 0;
#X connect 4 1 6 0;
#X connect 7 0 8 0;
#X connect 7 1 9 0;
#X connect 7 2 10 0;
#X connect 12 0 13 0;
