#N canvas 725 22 457 558 10;
#X obj 90 39 ctlin;
#X floatatom 116 115 5 0 0 0 - - -;
#X floatatom 139 87 5 0 0 0 - - -;
#X floatatom 56 114 5 0 0 0 - - -;
#X obj 104 224 pgmin;
#X floatatom 78 281 5 0 0 0 - - -;
#X floatatom 157 291 5 0 0 0 - - -;
#X obj 81 397 notein;
#X floatatom 58 463 5 0 0 0 - - -;
#X floatatom 99 463 5 0 0 0 - - -;
#X floatatom 155 439 5 0 0 0 - - -;
#X obj 181 325 midiin;
#X floatatom 168 378 5 0 0 0 - - -;
#X obj 224 219 print 1;
#X obj 291 242 print 2;
#X obj 356 216 print 6;
#X obj 279 131 channels;
#X connect 0 0 3 0;
#X connect 0 1 1 0;
#X connect 0 2 2 0;
#X connect 4 0 5 0;
#X connect 4 1 6 0;
#X connect 7 0 8 0;
#X connect 7 1 9 0;
#X connect 7 2 10 0;
#X connect 11 0 12 0;
#X connect 16 0 13 0;
#X connect 16 1 14 0;
#X connect 16 4 15 0;
