#N canvas 961 22 457 558 10;
#X obj 90 39 ctlin;
#X floatatom 116 115 5 0 0 0 - - -;
#X floatatom 139 87 5 0 0 0 - - -;
#X floatatom 56 114 5 0 0 0 - - -;
#X obj 104 224 pgmin;
#X floatatom 78 281 5 0 0 0 - - -;
#X floatatom 157 291 5 0 0 0 - - -;
#X obj 81 397 notein;
#X floatatom 58 463 5 0 0 0 - - -;
#X floatatom 99 463 5 0 0 0 - - -;
#X floatatom 155 439 5 0 0 0 - - -;
#X obj 181 325 midiin;
#X floatatom 168 378 5 0 0 0 - - -;
#X obj 271 286 ctlout;
#X msg 228 209 64;
#X msg 275 209 1;
#X obj 272 157 bng 15 250 50 0 empty empty empty 17 7 0 10 -262144
-1 -1;
#X msg 321 207 3;
#X obj 279 131 console;
#X obj 286 380 controls;
#X obj 286 443 bng 15 250 50 0 empty empty empty 17 7 0 10 -262144
-1 -1;
#X obj 314 442 bng 15 250 50 0 empty empty empty 17 7 0 10 -262144
-1 -1;
#X obj 350 440 bng 15 250 50 0 empty empty empty 17 7 0 10 -262144
-1 -1;
#X obj 379 441 bng 15 250 50 0 empty empty empty 17 7 0 10 -262144
-1 -1;
#X connect 0 0 3 0;
#X connect 0 1 1 0;
#X connect 0 2 2 0;
#X connect 4 0 5 0;
#X connect 4 1 6 0;
#X connect 7 0 8 0;
#X connect 7 1 9 0;
#X connect 7 2 10 0;
#X connect 11 0 12 0;
#X connect 14 0 13 0;
#X connect 15 0 13 1;
#X connect 16 0 14 0;
#X connect 16 0 15 0;
#X connect 16 0 17 0;
#X connect 17 0 13 2;
#X connect 19 0 20 0;
#X connect 19 1 21 0;
#X connect 19 2 22 0;
#X connect 19 3 23 0;
