#N canvas 580 135 715 469 10;
#X text 491 6 comment;
#X obj 194 300 outlet;
#X obj 171 242 bng 15 250 50 0 empty empty empty 17 7 0 10 -262144
-1 -1;
#X obj 213 257 pack f f f f f f f f f;
#X obj 16 22 ctlin 1 \$1;
#X obj 87 22 ctlin 2 \$1;
#X obj 155 23 ctlin 3 \$1;
#X obj 224 23 ctlin \$4 \$1;
#X obj 291 23 ctlin 5 \$1;
#X obj 359 23 ctlin 6 \$1;
#X obj 430 23 ctlin 7 \$1;
#X obj 499 23 ctlin 8 \$1;
#X text 362 254 how to use any argument as first?;
#X obj 62 192 ctlin \$0 \$1;
#X connect 2 0 3 0;
#X connect 3 0 1 0;
#X connect 4 0 3 1;
#X connect 5 0 3 2;
#X connect 6 0 3 3;
#X connect 7 0 3 4;
#X connect 8 0 3 5;
#X connect 9 0 3 6;
#X connect 10 0 3 7;
#X connect 11 0 3 8;
#X connect 13 0 2 0;
