#N canvas 755 169 475 562 10;
#N canvas 104 228 787 292 mute 0;
#X obj 130 50 ctlin 1 1;
#X obj 131 110 outlet \$1;
#X obj 197 110 outlet \$2;
#X obj 197 51 ctlin 2 1;
#X obj 262 111 outlet \$3;
#X obj 261 51 ctlin 3 1;
#X obj 328 52 ctlin 4 1;
#X obj 391 52 ctlin 5 1;
#X obj 458 53 ctlin 6 1;
#X obj 522 52 ctlin 7 1;
#X obj 589 53 ctlin 8 1;
#X obj 589 112 outlet \$8;
#X obj 523 112 outlet \$7;
#X obj 458 112 outlet \$6;
#X obj 392 112 outlet \$5;
#X obj 328 111 outlet \$4;
#X connect 0 0 1 0;
#X connect 3 0 2 0;
#X connect 5 0 4 0;
#X connect 6 0 15 0;
#X connect 7 0 14 0;
#X connect 8 0 13 0;
#X connect 9 0 12 0;
#X connect 10 0 11 0;
#X restore 50 44 pd mute;
#N canvas 104 228 787 292 lock 0;
#X obj 130 50 ctlin 1 1;
#X obj 131 110 outlet \$1;
#X obj 197 110 outlet \$2;
#X obj 197 51 ctlin 2 1;
#X obj 262 111 outlet \$3;
#X obj 261 51 ctlin 3 1;
#X obj 328 52 ctlin 4 1;
#X obj 391 52 ctlin 5 1;
#X obj 458 53 ctlin 6 1;
#X obj 522 52 ctlin 7 1;
#X obj 589 53 ctlin 8 1;
#X obj 589 112 outlet \$8;
#X obj 523 112 outlet \$7;
#X obj 458 112 outlet \$6;
#X obj 392 112 outlet \$5;
#X obj 328 111 outlet \$4;
#X connect 0 0 1 0;
#X connect 3 0 2 0;
#X connect 5 0 4 0;
#X connect 6 0 15 0;
#X connect 7 0 14 0;
#X connect 8 0 13 0;
#X connect 9 0 12 0;
#X connect 10 0 11 0;
#X restore 113 45 pd lock;
